<svg xmlns="http://www.w3.org/2000/svg" xmlns:xlink="http://www.w3.org/1999/xlink" viewBox="0 0 1161.59 1693.5"><defs><style>.cls-1,.cls-9{fill:#fff;}.cls-1,.cls-11,.cls-12,.cls-13,.cls-14,.cls-15,.cls-16,.cls-17,.cls-2,.cls-5,.cls-6,.cls-7,.cls-8,.cls-9{stroke:#000;stroke-miterlimit:10;}.cls-2{fill:#66aceb;}.cls-15,.cls-3{fill:#9c6f3e;}.cls-10,.cls-11,.cls-4,.cls-5{opacity:0.4;}.cls-4{fill:url(#Degradado_sin_nombre_23);}.cls-5{fill:url(#Degradado_sin_nombre_23-2);}.cls-12,.cls-6{opacity:0.05;}.cls-6{fill:url(#Degradado_sin_nombre_44);}.cls-13,.cls-7{opacity:0.1;}.cls-7{fill:url(#Degradado_sin_nombre_30);}.cls-14,.cls-8{opacity:0.2;}.cls-8{fill:url(#Degradado_sin_nombre_30-2);}.cls-9{stroke-width:5px;}.cls-10{fill:url(#Degradado_sin_nombre_23-3);}.cls-11{fill:url(#Degradado_sin_nombre_23-4);}.cls-12{fill:url(#Degradado_sin_nombre_71);}.cls-13{fill:url(#Degradado_sin_nombre_30-3);}.cls-14{fill:url(#Degradado_sin_nombre_30-4);}.cls-16{opacity:0.18;}.cls-17{fill:none;stroke-width:10px;}.cls-18{font-size:100px;font-family:MyriadPro-Regular, Myriad Pro;}</style><linearGradient id="Degradado_sin_nombre_23" x1="36.75" y1="636.75" x2="482.25" y2="1082.25" gradientUnits="userSpaceOnUse"><stop offset="0" stop-color="#fff"/><stop offset="1"/></linearGradient><linearGradient id="Degradado_sin_nombre_23-2" x1="121.75" y1="1182.75" x2="398.25" y2="1459.25" xlink:href="#Degradado_sin_nombre_23"/><linearGradient id="Degradado_sin_nombre_44" x1="260" y1="1064" x2="260" y2="1273.1" gradientUnits="userSpaceOnUse"><stop offset="0.34" stop-color="#42210b"/><stop offset="0.52" stop-color="#fff"/><stop offset="0.73" stop-color="#42210b"/></linearGradient><linearGradient id="Degradado_sin_nombre_30" x1="261.25" y1="1421" x2="261.25" y2="1503" gradientUnits="userSpaceOnUse"><stop offset="0" stop-color="#fff"/><stop offset="1" stop-color="#42210b"/></linearGradient><linearGradient id="Degradado_sin_nombre_30-2" x1="259.75" y1="581" x2="259.75" y2="501" xlink:href="#Degradado_sin_nombre_30"/><linearGradient id="Degradado_sin_nombre_23-3" x1="532.25" y1="636.75" x2="977.75" y2="1082.25" gradientTransform="matrix(1, 0, 0, -1, 8.5, 1719)" xlink:href="#Degradado_sin_nombre_23"/><linearGradient id="Degradado_sin_nombre_23-4" x1="617.25" y1="1182.75" x2="893.75" y2="1459.25" gradientTransform="matrix(1, 0, 0, -1, 7.5, 2642)" xlink:href="#Degradado_sin_nombre_23"/><linearGradient id="Degradado_sin_nombre_71" x1="755.5" y1="1064" x2="755.5" y2="1302" gradientTransform="matrix(-1, 0, 0, 1, 1518.5, 0)" gradientUnits="userSpaceOnUse"><stop offset="0.3" stop-color="#42210b"/><stop offset="0.53" stop-color="#f7f6f5"/><stop offset="0.75" stop-color="#42210b"/></linearGradient><linearGradient id="Degradado_sin_nombre_30-3" x1="756.75" y1="1421" x2="756.75" y2="1503" gradientTransform="matrix(-1, 0, 0, 1, 1518.5, 0)" xlink:href="#Degradado_sin_nombre_30"/><linearGradient id="Degradado_sin_nombre_30-4" x1="755.25" y1="581" x2="755.25" y2="501" gradientTransform="matrix(-1, 0, 0, 1, 1518.5, 0)" xlink:href="#Degradado_sin_nombre_30"/></defs><title>Recurso 1</title><g id="Capa_2" data-name="Capa 2"><g id="Capa_1-2" data-name="Capa 1"><g id="Ventana"><g id="VentanaBot"><polyline id="Rectangulo" class="cls-1" points="11.5 501.5 11.5 1503 1011.5 1503 1011.5 501.5"/><g id="RectanguloIzq"><g id="Solids"><rect id="background" class="cls-2" x="11.5" y="502" width="500" height="1001"/><rect id="SolidTop" class="cls-3" x="8" y="500.5" width="503" height="82"/><rect id="SolidTopLeft" class="cls-3" x="8" y="580.5" width="85" height="558"/><rect id="SolidTopRight" class="cls-3" x="426" y="580.5" width="85" height="558"/><rect id="SolidMid" class="cls-3" x="8" y="1138.5" width="503" height="82"/><rect id="SolidBotLeft" class="cls-3" x="8" y="1220.5" width="75" height="282"/><rect id="SolidBotRight" class="cls-3" x="436" y="1220.5" width="75" height="282"/><rect id="SolidBot" class="cls-3" x="10" y="1420.5" width="503" height="82"/></g><g id="Shadows"><rect id="ShadowGlassTop" class="cls-4" x="93" y="580.5" width="333" height="558"/><rect id="ShadowGlassBot" class="cls-5" x="83.5" y="1221" width="353" height="200"/><polygon id="ShadowMid" class="cls-6" points="8.5 1064 93.5 1139 426.5 1139 511.5 1180 436.5 1221 83.5 1221 8.5 1273.1 8.5 1064"/><polygon id="ShadowBot" class="cls-7" points="9.75 1503 83.25 1421 436.25 1421 512.75 1503 9.75 1503"/><polygon id="ShadowTop" class="cls-8" points="8.25 501 93.25 581 426.25 581 511.25 501 8.25 501"/></g><circle id="PerillaIzq" class="cls-9" cx="456.5" cy="1179" r="20"/></g><g id="RectanguloDer"><g id="Solids-2" data-name="Solids"><rect id="background-2" data-name="background" class="cls-2" x="511.5" y="502" width="500" height="1001" transform="translate(1523 2005) rotate(-180)"/><rect id="SolidTop-2" data-name="SolidTop" class="cls-3" x="512" y="500.5" width="503" height="82" transform="translate(1527 1083) rotate(-180)"/><rect id="SolidTopLeft-2" data-name="SolidTopLeft" class="cls-3" x="930" y="580.5" width="85" height="558" transform="translate(1945 1719) rotate(-180)"/><rect id="SolidTopRight-2" data-name="SolidTopRight" class="cls-3" x="512" y="580.5" width="85" height="558" transform="translate(1109 1719) rotate(-180)"/><rect id="SolidMid-2" data-name="SolidMid" class="cls-3" x="512" y="1138.5" width="503" height="82" transform="translate(1527 2359) rotate(-180)"/><rect id="SolidBotLeft-2" data-name="SolidBotLeft" class="cls-3" x="940" y="1220.5" width="75" height="282" transform="translate(1955 2723) rotate(-180)"/><rect id="SolidBotRight-2" data-name="SolidBotRight" class="cls-3" x="512" y="1220.5" width="75" height="282" transform="translate(1099 2723) rotate(-180)"/><rect id="SolidBot-2" data-name="SolidBot" class="cls-3" x="510" y="1420.5" width="503" height="82" transform="translate(1523 2923) rotate(-180)"/></g><g id="Shadows-2" data-name="Shadows"><rect id="ShadowGlassTop-2" data-name="ShadowGlassTop" class="cls-10" x="597" y="580.5" width="333" height="558" transform="translate(1527 1719) rotate(-180)"/><rect id="ShadowGlassBot-2" data-name="ShadowGlassBot" class="cls-11" x="586.5" y="1221" width="353" height="200" transform="translate(1526 2642) rotate(-180)"/><polygon id="ShadowMid-2" data-name="ShadowMid" class="cls-12" points="1014.5 1064 929.5 1139 596.5 1139 511.5 1180 586.5 1221 939.5 1221 1014.5 1302 1014.5 1064"/><polygon id="ShadowBot-2" data-name="ShadowBot" class="cls-13" points="1013.25 1503 939.75 1421 586.75 1421 510.25 1503 1013.25 1503"/><polygon id="ShadowTop-2" data-name="ShadowTop" class="cls-14" points="1014.75 501 929.75 581 596.75 581 511.75 501 1014.75 501"/></g><circle id="PerillaDer" class="cls-9" cx="567.5" cy="1179" r="20"/></g></g><g id="SemiCirculo"><path id="Background-3" data-name="Background" class="cls-15" d="M1011.25,500.5c0-276.14-223.86-500-500-500s-500,223.86-500,500"/><path id="Shadow" class="cls-16" d="M1014.75,501.56c0-24.95-223.86-45.17-500-45.17s-500,20.23-500,45.17"/></g></g><g id="Acotaciones"><g id="AcotX"><line id="lineX" class="cls-17" x1="1008" y1="1577.5" x2="8" y2="1577.5"/><line id="Izq" class="cls-17" x1="5" y1="1527.5" x2="5" y2="1627.5"/><line id="Der" class="cls-17" x1="1007" y1="1527.5" x2="1007" y2="1627.5"/><text class="cls-18" transform="translate(508 1668.5)">X</text></g><g id="AcotY"><line id="lineY" class="cls-17" x1="1088" y1="1503.5" x2="1089.47" y2="503.5"/><line id="Top" class="cls-17" x1="1140" y1="500.5" x2="1040" y2="500.35"/><line id="Abajo" class="cls-17" x1="1138" y1="1502.5" x2="1038" y2="1502.35"/><text class="cls-18" transform="translate(1107.49 1000.5)">Y</text></g></g></g></g></svg>